<?xml version="1.0"?>
<svg xmlns="http://www.w3.org/2000/svg" width="1580" height="980" viewBox="0 0 1580 980" role="img" aria-labelledby="title desc">
  <title id="title">&#x7EDF;&#x4E00;&#x5BA2;&#x6237;&#x5E73;&#x53F0;&#x603B;&#x4F53;&#x6A21;&#x578B;</title>
  <desc id="desc">&#x4E3B;&#x4F53;&#x8D44;&#x8D28;&#x8BC6;&#x522B;&#x7EDF;&#x4E00;&#x5BA2;&#x6237;&#xFF0C;&#x4E1A;&#x52A1;&#x5BA2;&#x6237; ID &#x8868;&#x8FBE;&#x4E1A;&#x52A1;&#x8EAB;&#x4EFD;&#xFF0C;&#x5404;&#x4E1A;&#x52A1; ID &#x7EE7;&#x7EED;&#x7531;&#x4E1A;&#x52A1;&#x57DF;&#x7EF4;&#x62A4;</desc>
  <defs>
    <filter id="shadow" x="-10%" y="-10%" width="120%" height="130%">
      <feDropShadow dx="0" dy="2" stdDeviation="3" flood-color="#333333" flood-opacity="0.08"/>
    </filter>
    <marker id="arr" orient="auto" markerWidth="10" markerHeight="8" refX="9" refY="4" viewBox="0 0 10 8">
      <path d="M0 0L10 4L0 8Z" fill="#666666"/>
    </marker>
    <marker id="arr2" orient="auto" markerWidth="10" markerHeight="8" refX="9" refY="4" viewBox="0 0 10 8">
      <path d="M0 0L10 4L0 8Z" fill="#999999"/>
    </marker>
    <style>text{font-family:PingFang SC,Microsoft YaHei,sans-serif}.title{font-size:25px;font-weight:700;fill:#333333}.sub{font-size:14px;fill:#666666}.layer{font-size:12px;font-weight:700;fill:#666666;letter-spacing:2px}.head{font-size:16px;font-weight:700;fill:#333333}.body{font-size:13px;fill:#666666}.small{font-size:11px;fill:#666666}.white{fill:#333333;font-weight:700;font-size:15px}.box{fill:#fff;stroke:#CCCCCC;stroke-width:1.25}.dash{fill:#fff;stroke:#CCCCCC;stroke-width:1.15;stroke-dasharray:7 5}.link{fill:none;stroke:#666666;stroke-width:1.35}.muted{fill:none;stroke:#999999;stroke-width:1.15}</style>
  </defs>
  <rect width="1580" height="980" fill="#FFFFFF"/>
  <text x="36" y="42" class="title">&#x7EDF;&#x4E00;&#x5BA2;&#x6237;&#x5E73;&#x53F0;&#x603B;&#x4F53;&#x6A21;&#x578B;</text>
  <text x="36" y="66" class="sub">&#x4E3B;&#x4F53;&#x8D44;&#x8D28;&#x8BC6;&#x522B;&#x7EDF;&#x4E00;&#x5BA2;&#x6237;&#xFF0C;&#x4E1A;&#x52A1;&#x5BA2;&#x6237; ID &#x8868;&#x8FBE;&#x4E1A;&#x52A1;&#x8EAB;&#x4EFD;&#xFF0C;&#x5404;&#x4E1A;&#x52A1; ID &#x7EE7;&#x7EED;&#x7531;&#x4E1A;&#x52A1;&#x57DF;&#x7EF4;&#x62A4;</text>
  <text x="36" y="102" class="layer">&#x5BA2;&#x6237;&#x8BC6;&#x522B;&#x4E3B;&#x8F74;</text>
  <line x1="160" y1="98" x2="1544" y2="98" stroke="#CCCCCC"/>
  <g filter="url(#shadow)">
    <rect x="650" y="112" width="280" height="64" rx="12" fill="#FFFFFF" stroke="#9999CC" stroke-width="1.8"/>
    <text x="790.0" y="141" text-anchor="middle" class="head">&#x4E3B;&#x4F53;&#x8D44;&#x8D28;</text>
    <text x="790.0" y="163" text-anchor="middle" class="small">&#x8BC6;&#x522B;&#x73B0;&#x5B9E;&#x7ECF;&#x8425;&#x4E3B;&#x4F53;</text>
  </g>
  <line x1="790" y1="176" x2="790" y2="215" class="link" marker-end="url(#arr)"/>
  <rect x="756.0" y="183.5" width="68" height="20" rx="10" fill="#FFFFFF"/>
  <text x="790.0" y="198.5" text-anchor="middle" class="small">1 : 1</text>
  <g filter="url(#shadow)">
    <rect x="365" y="215" width="850" height="70" rx="2" fill="#6699CC" stroke="#336699" stroke-width="1.4"/>
    <text x="790.0" y="244" text-anchor="middle" class="head" style="fill:#333333">&#x7EDF;&#x4E00;&#x5BA2;&#x6237; ID  customer_id</text>
    <text x="790.0" y="266" text-anchor="middle" class="small" style="fill:#333333">&#x8DE8;&#x4E1A;&#x52A1;&#x7A33;&#x5B9A;&#x5BA2;&#x6237;</text>
  </g>
  <line x1="790" y1="285" x2="790" y2="330" class="link" marker-end="url(#arr)"/>
  <rect x="756.0" y="295.5" width="68" height="20" rx="10" fill="#FFFFFF"/>
  <text x="790.0" y="310.5" text-anchor="middle" class="small">1 : N</text>
  <g filter="url(#shadow)">
    <rect x="365" y="330" width="850" height="70" rx="2" fill="#99CCCC" stroke="#669999" stroke-width="1.4"/>
    <text x="790.0" y="359" text-anchor="middle" class="head" style="fill:#333333">&#x4E1A;&#x52A1;&#x5BA2;&#x6237; ID  biz_customer_id</text>
    <text x="790.0" y="381" text-anchor="middle" class="small" style="fill:#333333">&#x5BA2;&#x6237;&#x5728;&#x4E1A;&#x52A1;&#x573A;&#x666F;&#x4E2D;&#x7684;&#x8EAB;&#x4EFD;</text>
  </g>
  <rect x="30" y="145" width="270" height="515" rx="16" class="dash"/>
  <rect x="52" y="132" width="150" height="28" rx="14" fill="#9999CC"/>
  <text x="127" y="151" text-anchor="middle" class="white">&#x7EDF;&#x4E00; B &#x7AEF;&#x8D26;&#x53F7;</text>
  <g filter="url(#shadow)">
    <rect x="65" y="205" width="200" height="68" rx="12" fill="#fff" stroke="#CCCCCC" stroke-width="1.8"/>
    <text x="165.0" y="234" text-anchor="middle" class="head">Bid</text>
    <text x="165.0" y="256" text-anchor="middle" class="small">&#x7EDF;&#x4E00;&#x767B;&#x5F55;&#x8D26;&#x53F7;</text>
  </g>
  <g filter="url(#shadow)">
    <rect x="65" y="335" width="200" height="68" rx="12" fill="#fff" stroke="#CCCCCC" stroke-width="1.8"/>
    <text x="165.0" y="364" text-anchor="middle" class="head">&#x4E1A;&#x52A1;&#x7BA1;&#x7406;&#x5458;&#x8D26;&#x53F7;</text>
    <text x="165.0" y="386" text-anchor="middle" class="small">&#x7EC4;&#x7EC7;&#x4E0E;&#x7BA1;&#x7406;</text>
  </g>
  <g filter="url(#shadow)">
    <rect x="65" y="500" width="200" height="68" rx="12" fill="#fff" stroke="#CCCCCC" stroke-width="1.8"/>
    <text x="165.0" y="529" text-anchor="middle" class="head">&#x4E1A;&#x52A1;&#x5B50;&#x8D26;&#x53F7;</text>
    <text x="165.0" y="551" text-anchor="middle" class="small">&#x4E1A;&#x52A1;&#x5185;&#x64CD;&#x4F5C;&#x8EAB;&#x4EFD;</text>
  </g>
  <polyline points="265,239 315,239 315,250 365,250" class="link" marker-end="url(#arr)"/>
  <rect x="281.0" y="232.5" width="68" height="20" rx="10" fill="#FFFFFF"/>
  <text x="315.0" y="247.5" text-anchor="middle" class="small">&#x7BA1;&#x7406;</text>
  <polyline points="265,369 315,369 315,365 365,365" class="link" marker-end="url(#arr)"/>
  <rect x="281.0" y="355.0" width="68" height="20" rx="10" fill="#FFFFFF"/>
  <text x="315.0" y="370.0" text-anchor="middle" class="small">&#x6388;&#x6743;</text>
  <polyline points="265,534 330,534 330,365 365,365" class="link" marker-end="url(#arr)"/>
  <rect x="281.0" y="437.5" width="68" height="20" rx="10" fill="#FFFFFF"/>
  <text x="315.0" y="452.5" text-anchor="middle" class="small">&#x53C2;&#x4E0E;</text>
  <text x="36" y="444" class="layer">&#x4E1A;&#x52A1;&#x8EAB;&#x4EFD;&#x7C7B;&#x578B;</text>
  <line x1="160" y1="440" x2="1544" y2="440" stroke="#CCCCCC"/>
  <rect x="380" y="470" width="250" height="190" rx="14" fill="#fff" stroke="#CCCCCC" stroke-width="1.6"/>
  <rect x="380" y="470" width="250" height="38" rx="14" fill="#6699CC"/>
  <rect x="380" y="494" width="250" height="14" fill="#6699CC"/>
  <text x="505" y="495" text-anchor="middle" class="white">&#x7535;&#x5546;</text>
  <rect x="398" y="525" width="100" height="26" rx="13" fill="#CCFFFF"/>
  <text x="448.0" y="543" text-anchor="middle" style="font-family:PingFang SC, Microsoft YaHei, sans-serif;font-size:11px;font-weight:700;fill:#336666">&#x5546;&#x5BB6; seller</text>
  <rect x="509" y="525" width="100" height="26" rx="13" fill="#CCCCFF"/>
  <text x="559.0" y="543" text-anchor="middle" style="font-family:PingFang SC, Microsoft YaHei, sans-serif;font-size:11px;font-weight:700;fill:#666699">&#x670D;&#x52A1;&#x5546; ks_org</text>
  <rect x="398" y="573" width="100" height="26" rx="13" fill="#CCFFFF"/>
  <text x="448.0" y="591" text-anchor="middle" style="font-family:PingFang SC, Microsoft YaHei, sans-serif;font-size:11px;font-weight:700;fill:#336666">&#x56E2;&#x957F; leader</text>
  <rect x="509" y="573" width="100" height="26" rx="13" fill="#CCCCFF"/>
  <text x="559.0" y="591" text-anchor="middle" style="font-family:PingFang SC, Microsoft YaHei, sans-serif;font-size:11px;font-weight:700;fill:#666699">ISV</text>
  <line x1="790" y1="400" x2="790" y2="455" class="link"/>
  <line x1="505" y1="455" x2="1360" y2="455" class="link"/>
  <line x1="505" y1="455" x2="505" y2="470" class="link" marker-end="url(#arr)"/>
  <rect x="471" y="438" width="68" height="20" rx="10" fill="#FFFFFF"/>
  <text x="505" y="453" text-anchor="middle" class="small">&#x8EAB;&#x4EFD;&#x6CE8;&#x518C;</text>
  <rect x="665" y="470" width="250" height="190" rx="14" fill="#fff" stroke="#CCCCCC" stroke-width="1.6"/>
  <rect x="665" y="470" width="250" height="38" rx="14" fill="#6699CC"/>
  <rect x="665" y="494" width="250" height="14" fill="#6699CC"/>
  <text x="790" y="495" text-anchor="middle" class="white">&#x5546;&#x4E1A;&#x5316;</text>
  <rect x="683" y="525" width="100" height="26" rx="13" fill="#CCFFFF"/>
  <text x="733.0" y="543" text-anchor="middle" style="font-family:PingFang SC, Microsoft YaHei, sans-serif;font-size:11px;font-weight:700;fill:#336666">&#x5E7F;&#x544A;&#x4E3B; corp</text>
  <rect x="794" y="525" width="100" height="26" rx="13" fill="#CCCCFF"/>
  <text x="844.0" y="543" text-anchor="middle" style="font-family:PingFang SC, Microsoft YaHei, sans-serif;font-size:11px;font-weight:700;fill:#666699">&#x4EE3;&#x7406;&#x5546; agent</text>
  <rect x="683" y="573" width="100" height="26" rx="13" fill="#CCFFFF"/>
  <text x="733.0" y="591" text-anchor="middle" style="font-family:PingFang SC, Microsoft YaHei, sans-serif;font-size:11px;font-weight:700;fill:#336666">ISV</text>
  <line x1="790" y1="455" x2="790" y2="470" class="link" marker-end="url(#arr)"/>
  <rect x="756" y="438" width="68" height="20" rx="10" fill="#FFFFFF"/>
  <text x="790" y="453" text-anchor="middle" class="small">&#x8EAB;&#x4EFD;&#x6CE8;&#x518C;</text>
  <rect x="950" y="470" width="250" height="190" rx="14" fill="#fff" stroke="#CCCCCC" stroke-width="1.6"/>
  <rect x="950" y="470" width="250" height="38" rx="14" fill="#6699CC"/>
  <rect x="950" y="494" width="250" height="14" fill="#6699CC"/>
  <text x="1075" y="495" text-anchor="middle" class="white">&#x672C;&#x5730;&#x751F;&#x6D3B;</text>
  <rect x="968" y="525" width="100" height="26" rx="13" fill="#CCFFFF"/>
  <text x="1018.0" y="543" text-anchor="middle" style="font-family:PingFang SC, Microsoft YaHei, sans-serif;font-size:11px;font-weight:700;fill:#336666">&#x5546;&#x5BB6; merchant</text>
  <rect x="1079" y="525" width="100" height="26" rx="13" fill="#CCCCFF"/>
  <text x="1129.0" y="543" text-anchor="middle" style="font-family:PingFang SC, Microsoft YaHei, sans-serif;font-size:11px;font-weight:700;fill:#666699">&#x670D;&#x52A1;&#x5546; provider</text>
  <rect x="968" y="573" width="100" height="26" rx="13" fill="#CCFFFF"/>
  <text x="1018.0" y="591" text-anchor="middle" style="font-family:PingFang SC, Microsoft YaHei, sans-serif;font-size:11px;font-weight:700;fill:#336666">ISV</text>
  <line x1="1075" y1="455" x2="1075" y2="470" class="link" marker-end="url(#arr)"/>
  <rect x="1041" y="438" width="68" height="20" rx="10" fill="#FFFFFF"/>
  <text x="1075" y="453" text-anchor="middle" class="small">&#x8EAB;&#x4EFD;&#x6CE8;&#x518C;</text>
  <rect x="1235" y="470" width="250" height="190" rx="14" fill="#fff" stroke="#CCCCCC" stroke-width="1.6"/>
  <rect x="1235" y="470" width="250" height="38" rx="14" fill="#6699CC"/>
  <rect x="1235" y="494" width="250" height="14" fill="#6699CC"/>
  <text x="1360" y="495" text-anchor="middle" class="white">&#x4E3B;&#x7AD9;</text>
  <rect x="1253" y="525" width="100" height="26" rx="13" fill="#CCFFFF"/>
  <text x="1303.0" y="543" text-anchor="middle" style="font-family:PingFang SC, Microsoft YaHei, sans-serif;font-size:11px;font-weight:700;fill:#336666">&#x521B;&#x4F5C;&#x8005; creator</text>
  <rect x="1364" y="525" width="100" height="26" rx="13" fill="#CCCCFF"/>
  <text x="1414.0" y="543" text-anchor="middle" style="font-family:PingFang SC, Microsoft YaHei, sans-serif;font-size:11px;font-weight:700;fill:#666699">&#x8FBE;&#x4EBA; promoter</text>
  <rect x="1253" y="573" width="100" height="26" rx="13" fill="#CCFFFF"/>
  <text x="1303.0" y="591" text-anchor="middle" style="font-family:PingFang SC, Microsoft YaHei, sans-serif;font-size:11px;font-weight:700;fill:#336666">&#x673A;&#x6784; mcn_org</text>
  <rect x="1364" y="573" width="100" height="26" rx="13" fill="#CCCCFF"/>
  <text x="1414.0" y="591" text-anchor="middle" style="font-family:PingFang SC, Microsoft YaHei, sans-serif;font-size:11px;font-weight:700;fill:#666699">ISV</text>
  <line x1="1360" y1="455" x2="1360" y2="470" class="link" marker-end="url(#arr)"/>
  <rect x="1326" y="438" width="68" height="20" rx="10" fill="#FFFFFF"/>
  <text x="1360" y="453" text-anchor="middle" class="small">&#x8EAB;&#x4EFD;&#x6CE8;&#x518C;</text>
  <text x="36" y="710" class="layer">&#x4E1A;&#x52A1; ID &#x4E0E;&#x7528;&#x6237;&#x8D44;&#x4EA7;</text>
  <line x1="200" y1="706" x2="1544" y2="706" stroke="#CCCCCC"/>
  <line x1="505" y1="660" x2="505" y2="735" class="link" marker-end="url(#arr)"/>
  <line x1="790" y1="660" x2="790" y2="735" class="link" marker-end="url(#arr)"/>
  <line x1="1075" y1="660" x2="1075" y2="735" class="link" marker-end="url(#arr)"/>
  <line x1="1360" y1="660" x2="1360" y2="735" class="link" marker-end="url(#arr)"/>
  <rect x="756" y="681" width="68" height="20" rx="10" fill="#FFFFFF"/>
  <text x="790" y="696" text-anchor="middle" class="small">1 : N</text>
  <g filter="url(#shadow)">
    <rect x="380" y="735" width="250" height="68" rx="12" fill="#fff" stroke="#CCCCCC" stroke-width="1.8"/>
    <text x="505.0" y="764" text-anchor="middle" class="head">&#x7535;&#x5546;&#x4E1A;&#x52A1; ID</text>
    <text x="505.0" y="786" text-anchor="middle" class="small">shopId &#xB7; orgId &#xB7; uid</text>
  </g>
  <g filter="url(#shadow)">
    <rect x="665" y="735" width="250" height="68" rx="12" fill="#fff" stroke="#CCCCCC" stroke-width="1.8"/>
    <text x="790.0" y="764" text-anchor="middle" class="head">&#x5546;&#x4E1A;&#x5316;&#x4E1A;&#x52A1; ID</text>
    <text x="790.0" y="786" text-anchor="middle" class="small">clientId &#xB7; accountId</text>
  </g>
  <g filter="url(#shadow)">
    <rect x="950" y="735" width="250" height="68" rx="12" fill="#fff" stroke="#CCCCCC" stroke-width="1.8"/>
    <text x="1075.0" y="764" text-anchor="middle" class="head">&#x672C;&#x5730;&#x4E1A;&#x52A1; ID</text>
    <text x="1075.0" y="786" text-anchor="middle" class="small">merchantId &#xB7; poiId</text>
  </g>
  <g filter="url(#shadow)">
    <rect x="1235" y="735" width="250" height="68" rx="12" fill="#fff" stroke="#CCCCCC" stroke-width="1.8"/>
    <text x="1360.0" y="764" text-anchor="middle" class="head">&#x4E3B;&#x7AD9;&#x4E1A;&#x52A1; ID</text>
    <text x="1360.0" y="786" text-anchor="middle" class="small">uid &#xB7; orgId</text>
  </g>
  <rect x="365" y="845" width="1135" height="95" rx="15" fill="#fff" stroke="#CCCCCC" stroke-width="1.6"/>
  <text x="400" y="875" class="head">&#x7528;&#x6237;&#x8D44;&#x4EA7;</text>
  <rect x="520" y="856" width="180" height="26" rx="13" fill="#FFFFFF"/>
  <text x="610.0" y="874" text-anchor="middle" style="font-family:PingFang SC, Microsoft YaHei, sans-serif;font-size:11px;font-weight:700;fill:#333333">&#x7ECF;&#x8425;&#x8D44;&#x8D28;</text>
  <rect x="745" y="856" width="180" height="26" rx="13" fill="#FFFFFF"/>
  <text x="835.0" y="874" text-anchor="middle" style="font-family:PingFang SC, Microsoft YaHei, sans-serif;font-size:11px;font-weight:700;fill:#333333">&#x5408;&#x540C;</text>
  <rect x="970" y="856" width="180" height="26" rx="13" fill="#FFFFFF"/>
  <text x="1060.0" y="874" text-anchor="middle" style="font-family:PingFang SC, Microsoft YaHei, sans-serif;font-size:11px;font-weight:700;fill:#333333">&#x5E74;&#x6846;</text>
  <rect x="1195" y="856" width="180" height="26" rx="13" fill="#FFFFFF"/>
  <text x="1285.0" y="874" text-anchor="middle" style="font-family:PingFang SC, Microsoft YaHei, sans-serif;font-size:11px;font-weight:700;fill:#333333">&#x8D37;&#x6B3E;</text>
  <rect x="520" y="896" width="180" height="26" rx="13" fill="#FFFFFF"/>
  <text x="610.0" y="914" text-anchor="middle" style="font-family:PingFang SC, Microsoft YaHei, sans-serif;font-size:11px;font-weight:700;fill:#333333">&#x57AB;&#x8D44;</text>
  <rect x="745" y="896" width="180" height="26" rx="13" fill="#FFFFFF"/>
  <text x="835.0" y="914" text-anchor="middle" style="font-family:PingFang SC, Microsoft YaHei, sans-serif;font-size:11px;font-weight:700;fill:#333333">&#x5E74;&#x6846;&#x8FD4;&#x70B9;</text>
  <rect x="970" y="896" width="180" height="26" rx="13" fill="#FFFFFF"/>
  <text x="1060.0" y="914" text-anchor="middle" style="font-family:PingFang SC, Microsoft YaHei, sans-serif;font-size:11px;font-weight:700;fill:#333333">&#x54C1;&#x724C;&#x5956;&#x52B1;&#x91D1;</text>
  <rect x="1195" y="896" width="180" height="26" rx="13" fill="#FFFFFF"/>
  <text x="1285.0" y="914" text-anchor="middle" style="font-family:PingFang SC, Microsoft YaHei, sans-serif;font-size:11px;font-weight:700;fill:#333333">&#x4FDD;&#x8BC1;&#x91D1;&#x94B1;&#x5305;</text>
</svg>
